<?xml version="1.0" standalone="no"?>
<!DOCTYPE svg PUBLIC "-//W3C//DTD SVG 20010904//EN"
 "http://www.w3.org/TR/2001/REC-SVG-20010904/DTD/svg10.dtd">
<svg version="1.0" xmlns="http://www.w3.org/2000/svg"
 width="500.000000pt" height="500.000000pt" viewBox="0 0 500.000000 500.000000"
 preserveAspectRatio="xMidYMid meet">
<metadata>
Created by potrace 1.14, written by Peter Selinger 2001-2017
</metadata>
<g transform="translate(0.000000,500.000000) scale(0.100000,-0.100000)"
fill="#000000" stroke="none">
<path d="M0 2500 l0 -2500 2500 0 2500 0 0 2500 0 2500 -2500 0 -2500 0 0
-2500z m1836 799 c38 -12 96 -35 129 -51 88 -43 135 -41 265 12 88 36 119 44
190 48 111 6 174 -8 290 -63 57 -27 109 -45 131 -45 37 0 109 22 191 59 99 45
237 45 371 0 104 -35 154 -41 190 -22 23 12 54 16 110 15 82 -2 112 -11 138
-45 12 -15 32 -21 73 -25 53 -4 60 -2 89 25 40 38 72 46 148 37 82 -9 93 -22
85 -98 -7 -66 -47 -286 -73 -406 -11 -49 -17 -123 -17 -215 0 -122 5 -164 36
-325 61 -310 65 -340 45 -355 -23 -16 -114 -27 -152 -17 -21 6 -41 25 -68 65
-40 60 -48 64 -110 46 -28 -7 -44 -21 -63 -52 -39 -62 -49 -67 -136 -67 -70 0
-82 3 -103 25 -14 13 -25 29 -25 35 0 21 -51 9 -127 -30 -94 -48 -172 -64
-272 -56 -93 9 -141 28 -213 83 -95 73 -135 70 -260 -19 -72 -51 -158 -72
-268 -66 -96 6 -152 26 -234 85 -41 29 -62 38 -106 41 -50 3 -60 0 -116 -36
-119 -77 -157 -87 -349 -86 -154 0 -175 2 -221 23 -50 22 -53 22 -85 5 -71
-37 -457 -34 -508 4 -29 22 -36 42 -56 182 -32 211 -46 391 -52 650 -6 305 2
406 44 507 27 65 32 69 88 97 118 57 214 68 405 45 79 -10 115 -9 210 4 151
20 295 15 386 -14z"/>
<path d="M3431 2648 c-85 -10 -118 -29 -138 -75 -17 -43 -2 -107 33 -140 20
-18 39 -23 115 -27 56 -3 101 0 115 6 56 26 82 124 50 187 -30 56 -54 63 -175
49z"/>
</g>
</svg>
